<svg width="207" height="27" viewBox="0 0 207 27" fill="none" xmlns="http://www.w3.org/2000/svg">
<path d="M49.4688 5.52125V0.03125H55.1787V5.52125H49.4688ZM49.4688 25.8612V6.57125H55.1787V25.8612H49.4688Z" fill="white"/>
<path d="M116.258 5.52125V0.03125H121.968V5.52125H116.258ZM116.258 25.8612V6.57125H121.968V25.8612H116.258Z" fill="white"/>
<path d="M57.7287 10.53V6.57H59.9888V0H65.6987V6.57H68.4287V10.53H65.6987V20.69C65.6987 21.2 65.8087 21.55 66.0187 21.74C66.2387 21.94 66.5487 22.03 66.9487 22.03C67.1387 22.01 67.3187 21.99 67.4887 21.98C67.6587 21.97 67.9687 21.96 68.4187 21.96V25.82C66.9587 26.03 65.7388 26.13 64.7588 26.13C61.5688 26.13 59.9787 24.65 59.9787 21.69V10.53H57.7188H57.7287Z" fill="white"/>
<path d="M124.569 10.53V6.57H126.829V0H132.539V6.57H135.269V10.53H132.539V20.69C132.539 21.2 132.649 21.55 132.859 21.74C133.079 21.94 133.389 22.03 133.789 22.03C133.979 22.01 134.159 21.99 134.329 21.98C134.499 21.97 134.809 21.96 135.259 21.96V25.82C133.799 26.03 132.579 26.13 131.599 26.13C128.409 26.13 126.819 24.65 126.819 21.69V10.53H124.559H124.569Z" fill="white"/>
<path d="M76.3289 17.1095V20.4895C76.3289 21.0595 76.4689 21.5395 76.7589 21.9195C77.0489 22.2995 77.4889 22.4995 78.0889 22.5195C78.9289 22.5195 79.4589 22.2895 79.6889 21.8295C79.9189 21.3695 80.0389 20.6695 80.0689 19.7295C80.0689 19.5895 80.0789 19.4095 80.1089 19.1795H85.7789V19.5195L85.8189 19.8595C85.8189 22.0395 85.1689 23.6795 83.8789 24.7895C82.5889 25.8895 80.7289 26.4495 78.3089 26.4795C77.2289 26.4795 76.2289 26.3695 75.3089 26.1495C74.3889 25.9295 73.5689 25.5795 72.8689 25.0995C72.1589 24.6195 71.6089 23.9895 71.2189 23.2195C70.8189 22.4495 70.6289 21.5395 70.6289 20.4795V12.6295C70.6289 11.4095 70.8189 10.3795 71.1989 9.52953C71.5789 8.67953 72.1089 7.99953 72.7789 7.49953C73.4489 6.99953 74.2489 6.61953 75.1889 6.37953C76.1189 6.13953 77.1689 6.01953 78.3189 6.01953C79.3989 6.01953 80.3889 6.11953 81.2989 6.32953C82.2089 6.53953 83.0189 6.85953 83.7189 7.28953C84.4289 7.72953 84.9789 8.30953 85.3889 9.02953C85.7989 9.74953 85.9989 10.6095 85.9989 11.5995V17.1095H76.3389H76.3289ZM80.2889 13.4995V11.6095C80.2889 11.1495 80.1289 10.7095 79.8189 10.2795C79.5089 9.85953 79.0189 9.63953 78.3489 9.63953C77.6089 9.63953 77.0889 9.87953 76.7889 10.3495C76.4889 10.8195 76.3389 11.4495 76.3389 12.2295V13.4995H80.2889Z" fill="white"/>
<path d="M147.099 13.7398L147.059 13.3998C147.039 13.1698 147.009 12.8398 146.989 12.3998C146.939 11.8698 146.889 11.4698 146.849 11.1898C146.589 10.3898 146.069 9.97976 145.309 9.97976C144.639 9.97976 144.179 10.1898 143.939 10.5998C143.699 11.0098 143.579 11.5898 143.579 12.3198V20.2798C143.579 20.9698 143.719 21.5098 143.989 21.9198C144.259 22.3198 144.739 22.5198 145.409 22.5198C146.129 22.5198 146.609 22.2298 146.849 21.6398C147.089 21.0498 147.209 20.2998 147.209 19.3798C147.209 19.0998 147.199 18.8398 147.169 18.5898V18.0398H152.699C152.699 18.7298 152.659 19.5398 152.569 20.4798C152.489 21.4198 152.369 22.1298 152.229 22.6198C151.869 23.7698 151.209 24.6498 150.249 25.2498C149.289 25.8598 148.149 26.2298 146.839 26.3698C146.649 26.3898 146.499 26.3998 146.409 26.3998C145.859 26.4498 145.369 26.4698 144.939 26.4698C142.739 26.4698 141.009 25.9898 139.749 25.0398C138.489 24.0898 137.859 22.5698 137.859 20.4798V12.6298C137.859 10.2398 138.459 8.53977 139.659 7.52977C140.859 6.51977 142.619 6.00977 144.939 6.00977C147.569 6.02977 149.499 6.57977 150.709 7.65977C151.919 8.73977 152.519 10.4398 152.519 12.7598C152.519 12.8498 152.509 12.9998 152.479 13.2098V13.7298H147.089L147.099 13.7398Z" fill="white"/>
<path d="M161.429 8.09125H161.499C162.119 7.33125 162.789 6.80125 163.489 6.49125C164.199 6.18125 164.979 6.03125 165.839 6.03125C167.199 6.03125 168.309 6.44125 169.139 7.27125C169.979 8.10125 170.399 9.14125 170.399 10.4012V25.8713H164.689V12.1613C164.689 11.5612 164.579 11.1413 164.369 10.8913C164.149 10.6413 163.719 10.5113 163.079 10.5113C162.499 10.5113 162.089 10.7113 161.819 11.1112C161.559 11.5112 161.429 11.9913 161.429 12.5413V25.8713H155.719V0.03125H161.429V8.09125Z" fill="white"/>
<path d="M179.098 17.1095V20.4895C179.098 21.0595 179.238 21.5395 179.528 21.9195C179.818 22.2995 180.258 22.4995 180.858 22.5195C181.698 22.5195 182.228 22.2895 182.458 21.8295C182.688 21.3695 182.808 20.6695 182.838 19.7295C182.838 19.5895 182.848 19.4095 182.878 19.1795H188.548V19.5195L188.588 19.8595C188.588 22.0395 187.938 23.6795 186.648 24.7895C185.358 25.8895 183.498 26.4495 181.078 26.4795C179.998 26.4795 178.998 26.3695 178.078 26.1495C177.158 25.9295 176.338 25.5795 175.638 25.0995C174.928 24.6195 174.378 23.9895 173.988 23.2195C173.588 22.4495 173.398 21.5395 173.398 20.4795V12.6295C173.398 11.4095 173.588 10.3795 173.968 9.52953C174.348 8.67953 174.878 7.99953 175.548 7.49953C176.218 6.99953 177.018 6.61953 177.958 6.37953C178.898 6.13953 179.938 6.01953 181.088 6.01953C182.168 6.01953 183.158 6.11953 184.068 6.32953C184.978 6.53953 185.788 6.85953 186.488 7.28953C187.198 7.72953 187.748 8.30953 188.158 9.02953C188.568 9.74953 188.768 10.6095 188.768 11.5995V17.1095H179.108H179.098ZM183.048 13.4995V11.6095C183.048 11.1495 182.888 10.7095 182.578 10.2795C182.268 9.85953 181.778 9.63953 181.108 9.63953C180.368 9.63953 179.848 9.87953 179.548 10.3495C179.248 10.8195 179.098 11.4495 179.098 12.2295V13.4995H183.048Z" fill="white"/>
<path d="M197.06 6.56977V8.97976H197.13C197.42 8.19976 197.94 7.50977 198.69 6.90977C199.44 6.30977 200.25 6.00977 201.11 6.00977C202.55 6.00977 203.76 6.36977 204.74 7.07977C205.72 7.78977 206.21 8.77977 206.21 10.0398V25.8498H200.5V12.0698C200.45 11.5898 200.31 11.1998 200.09 10.9198C199.86 10.6298 199.5 10.4898 199 10.4898C197.97 10.5098 197.46 11.0398 197.46 12.0698V25.8498H191.75V6.56977H197.07H197.06Z" fill="white"/>
<path d="M45.778 11.25C45.518 10.24 45.118 9.36 44.588 8.62C44.048 7.86 43.358 7.27 42.538 6.86C41.728 6.46 40.778 6.25 39.738 6.25C39.398 6.25 39.018 6.29 38.618 6.36C38.198 6.43 37.778 6.56 37.368 6.75C37.048 6.89 36.728 7.08 36.418 7.3V0H31.668V25.89H36.258V25.02C36.408 25.15 36.578 25.27 36.748 25.39C37.518 25.9 38.468 26.15 39.578 26.15C40.568 26.15 41.488 25.95 42.298 25.54C43.108 25.14 43.808 24.56 44.388 23.82C44.958 23.1 45.398 22.2 45.708 21.16C46.008 20.14 46.158 18.97 46.158 17.71V14.57C46.158 13.35 46.028 12.24 45.778 11.25ZM36.358 14.66C36.358 13.58 36.608 12.7 37.088 12.04C37.528 11.44 38.178 11.14 39.068 11.14C39.898 11.14 40.458 11.43 40.808 12.04C41.228 12.76 41.438 13.83 41.438 15.21V17.25C41.438 18.6 41.218 19.65 40.778 20.37C40.398 20.99 39.878 21.28 39.148 21.28C38.738 21.28 38.378 21.2 38.048 21.03C37.698 20.86 37.398 20.63 37.158 20.36C36.908 20.09 36.708 19.77 36.568 19.42C36.428 19.09 36.358 18.76 36.358 18.44V14.65V14.66Z" fill="white"/>
<path d="M113.8 6.89094H107.45L102.89 12.7709V0.460938H97.9102V25.7009H102.89V20.0609L103.77 18.9409L107.58 25.7009H113.79L107.22 14.8709L113.8 6.89094Z" fill="white"/>
<path d="M7.06 0.0800781H13.6L20.66 26.0201H14.91L13.6 20.0701H6.87L5.56 26.0201H0L7.06 0.0800781ZM7.92 15.2601H12.57L12.08 13.0701C11.47 10.4901 10.89 7.39008 10.28 4.75008H10.16C9.61 7.47008 9 10.5001 8.42 13.0701L7.93 15.2601H7.92Z" fill="white"/>
</svg>
